<svg xmlns="http://www.w3.org/2000/svg" viewBox="0 0 52.343 61.023" class="jk" data-v-47c3231e=""><g data-name="Group 893" transform="translate(-62 -52)" fill="currentColor"><path data-name="Path 1053" d="M114.257 98.886h-11.083l-10.45-14.524 10.45-14.465h11.082L103.32 84.392ZM92.598 53.297h-8.457v45.589h8.457Z"></path><path data-name="Path 1054" d="M67.546 57.249a5.25 5.25 0 1 1 5.25 5.25 5.25 5.25 0 0 1-5.25-5.25Zm1.05 41.192a1.378 1.378 0 0 1-.261.806L62 108.023l6.925 5 7.515-10.405a3.445 3.445 0 0 0 .652-2.017V69.44h-8.5Z"></path></g><path data-name="Path 1057" d="M18.033 51.018h34.311" fill="none"></path></svg>