<svg xmlns="http://www.w3.org/2000/svg" viewBox="0 0 283.46 283.46"><defs><style>.c{fill:#fff}</style></defs><path d="M0 0h283.46v283.46H0z" fill="#985b9c" fill-rule="evenodd"/><path class="c" d="M58.09 181.52v7.42H12.22l32.09-39.82H17.49v-7.32h41.92l-31.9 39.72zM73.84 168.08c0 7.92.9 14.74 10.63 14.74S95.1 176 95.1 168.08V141.8h8V169c0 12.54-4.71 21.26-18.65 21.26S65.82 181.52 65.82 169v-27.2h8zM81.43 116.62A5.42 5.42 0 1176 111.2a5.39 5.39 0 015.43 5.42zM98.44 116.62A5.42 5.42 0 1193 111.2a5.38 5.38 0 015.44 5.42zM122.83 111.47v35.85l.2.2c3.31-4.51 7.62-7 13.44-7 13 0 16 9.43 16 20.46v28h-8v-26.62c0-7.62-.6-14.44-9.93-14.44-11 0-11.73 10.23-11.73 18.65v22.37h-8v-77.47zM172.34 188.94h-8v-77.47h8zM193.57 159.26l17.15-17.46h10.73l-20.16 20.06 24 27.08h-10.66l-21.06-23.87v23.87h-8v-77.47h8zM262.62 173.88c-3 5.21-7.24 8.94-13.6 8.94-8.94 0-15-7-15.13-15.75h36.26c.78-14-7.08-26.57-21.92-26.57-14.44 0-22.39 11.54-22.39 25.47 0 13.54 8.83 24.27 22.59 24.27 9.12 0 16.22-4.61 20.68-12.52zm-14.29-26c6.88 0 12.48 5.52 13.56 12.34h-27.61a14.71 14.71 0 0114.05-12.3zM27.21 227.21a6.94 6.94 0 01-6.53 4.07c-5.53 0-7.71-4.78-7.71-9.67 0-5.13 2.32-9.66 8-9.66a6.36 6.36 0 016.17 4 6.16 6.16 0 01.54 2.32c0 .75-.36 1-1 1.14L15.72 221c.18 3.25 1.64 7.35 5.49 7.35 2.43 0 3.93-1.5 5.11-3.46.25-.39.32-.75.85-.75s.68.43.68.89a6.6 6.6 0 01-.64 2.18zm-3-9.23a4.08 4.08 0 00-3.82-4c-3.1 0-4.38 2.6-4.67 5.35zM54.32 230.18c0 .46-.11.67-.64.67h-1.89c-.54 0-.65-.1-.65-.67v-11.6c0-2.39-.35-4.64-3.39-4.64a3.36 3.36 0 00-3.28 2 7 7 0 00-.18 1.71v12.49c0 .42 0 .67-.57.67h-2a.54.54 0 01-.61-.6V217.9c0-2.32-.93-4.06-3.5-4.06a3.24 3.24 0 00-3.24 2 4.82 4.82 0 00-.22 1.89v12.49c0 .53-.14.67-.67.67h-1.81c-.54 0-.65-.14-.65-.67v-14.39a2.65 2.65 0 01.72-2.31c1-1.11 4.49-1.57 5.88-1.57 2.14 0 4 .42 5.32 2.17a6.84 6.84 0 015.6-2.17c3.71 0 5.78 1.6 5.78 5.35zM65.56 231.28A6.31 6.31 0 0161.7 230v8.63c0 .39-.17.61-.57.61h-1.92c-.47 0-.68-.11-.68-.65V217a4.91 4.91 0 01.43-2.78c1.04-1.63 4.81-2.22 6.56-2.22 5.49 0 8.31 3.6 8.31 8.84 0 4.81-2.74 10.44-8.27 10.44zm-.75-17.37c-2.39 0-3.11.89-3.11 3.14v10.88a7 7 0 003.61 1.18c3.92 0 5.28-4.5 5.28-7.67 0-3.64-1.59-7.53-5.78-7.53zM84.36 231.28c-5.43 0-8.21-4.81-8.21-9.7s3-9.63 8.21-9.63 8.06 5.1 8.06 9.84-2.93 9.49-8.06 9.49zm4.7-10c0-2.82-1.49-7.32-5-7.32-3.61 0-4.64 4.32-4.64 7.17s1.21 8 5 8c3.53 0 4.56-4.43 4.56-7.18zM116.46 213.41l-5.28 16.91c-.1.32-.14.53-.53.53h-1.25c-.54 0-.61 0-.75-.53l-3.53-11.49-3.53 11.49c-.15.53-.18.53-.72.53h-1c-.46 0-.57-.1-.71-.53l-5.42-16.91a1.43 1.43 0 01-.14-.61c0-.32.24-.43.53-.43h2c.57 0 .68.11.86.68l3.92 13.17 3.86-13.17c.17-.75.1-.68 1-.68.39 0 .36.25.46.58l4.07 13.41 3.7-13.31c.15-.53.18-.68.75-.68H116c.25 0 .61 0 .61.36a1.57 1.57 0 01-.15.68zM132 227.21a7 7 0 01-6.53 4.07c-5.53 0-7.71-4.78-7.71-9.67 0-5.13 2.32-9.66 8-9.66a6.65 6.65 0 016.7 6.35c0 .75-.35 1-1 1.14L120.53 221c.18 3.25 1.64 7.35 5.49 7.35 2.43 0 3.93-1.5 5.1-3.46.25-.39.33-.75.86-.75s.68.43.68.89a6.6 6.6 0 01-.66 2.18zm-3-9.21a4.08 4.08 0 00-3.82-4c-3.1 0-4.39 2.6-4.67 5.35zM144.72 215.55c-1.43 0-1.43-1.89-3.61-1.89-1.67 0-2.07 1.07-2.07 2.53v14c0 .39-.1.64-.53.64h-1.93c-.53 0-.75 0-.75-.64v-14.85a2.29 2.29 0 01.54-1.86c1-1 4.67-1.53 6.1-1.53s3.67.25 3.67 2.06a1.47 1.47 0 01-1.42 1.54zM150.06 209.2a1.8 1.8 0 01-1.92-1.86 1.87 1.87 0 011.92-1.92 1.89 1.89 0 110 3.78zm1.57 21c0 .53-.07.67-.6.67h-2.11c-.39 0-.46-.1-.46-.5V213c0-.47.14-.58.6-.58H151c.57 0 .68.11.68.68zM170.15 230.14c0 .39-.1.71-.57.71h-1.85c-.54 0-.75-.07-.75-.64v-12.06a6.45 6.45 0 00-.32-2.46c-.72-1.53-2.32-1.93-3.86-1.93-1.24 0-2.74.29-3.45 1.4A3.47 3.47 0 00159 217v13.16c0 .53-.1.71-.64.71h-2c-.47 0-.57-.25-.57-.67v-14.4a2.48 2.48 0 01.71-2.14c1.36-1.29 5.1-1.71 6.89-1.71 2.56 0 5.28.53 6.42 3.1a8.3 8.3 0 01.35 2.78zM173.86 236.63a2.6 2.6 0 01.29-.28.62.62 0 01.39-.18c1.39.11 2.46.93 4.14.93 3.67 0 6-1.93 6-5.93v-1.53c-1.79.82-2.86 1.86-4.85 1.86-4.68 0-6.82-4.36-6.82-8.81 0-5.43 3.14-10.85 8.74-10.85 1.57 0 6.07.82 6.07 3.28v16.59c0 4.89-4.5 7.67-8.74 7.67a10.23 10.23 0 01-3.25-.68c-1.14-.46-1.93-.89-1.93-1.75zm7-7.7c.74 0 3.78-.57 3.78-1.54v-11.48c0-1.64-2.11-2.07-3.29-2.07-3.88 0-5.24 4.74-5.24 8.06s1.14 7.03 4.75 7.03zM201.4 209.2a1.8 1.8 0 01-1.92-1.86 1.87 1.87 0 011.92-1.92 1.89 1.89 0 110 3.78zm1.57 21c0 .53-.07.67-.6.67h-2.11c-.39 0-.46-.1-.46-.5V213c0-.47.14-.58.61-.58h1.89c.57 0 .67.11.67.68zM221.74 227.32a2.65 2.65 0 01-.5 1.79c-1.25 1.64-4.6 2.17-6.57 2.17-5.56 0-8.41-3.74-8.41-9.1 0-5 2.88-10.23 8.45-10.23a6.37 6.37 0 013.82 1.17v-8.88a.59.59 0 01.68-.68H221c.47 0 .72.07.72.61zm-3.21-12.2a5 5 0 00-3.43-1.32c-3.85 0-5.63 4.18-5.63 7.49 0 3.71 1.6 7.78 5.88 7.78 2.11 0 3.18-.68 3.18-2.82zM239.07 227.21a6.93 6.93 0 01-6.52 4.07c-5.53 0-7.71-4.78-7.71-9.67 0-5.13 2.32-9.66 8-9.66a6.65 6.65 0 016.7 6.35c0 .75-.35 1-1 1.14L227.59 221c.18 3.25 1.64 7.35 5.49 7.35 2.43 0 3.92-1.5 5.1-3.46.25-.39.32-.75.86-.75s.68.43.68.89a6.38 6.38 0 01-.65 2.18zm-3-9.23a4.08 4.08 0 00-3.82-4c-3.1 0-4.39 2.6-4.67 5.35zM254.56 227.25a4 4 0 01-.54 2.21c-1.07 1.46-4.35 1.82-6.1 1.82-3.17 0-6.21-1.25-6.21-4.85 0-4.74 6.18-5.92 9.74-7v-1.82c0-1.85-.28-3.81-2.67-3.81a3.11 3.11 0 00-3 2.32c-.11.14-.07.32-.18.46a1.45 1.45 0 01-2.85-.43c0-3 4.1-4.24 6.49-4.24 3.85 0 5.32 2 5.32 5.7zm-3.11-6.1c-2.45.75-6.45 1.57-6.45 4.85 0 2.17 1.46 3.39 3.6 3.39 1.82 0 2.85-.61 2.85-2.57zM263.8 231.28a6.64 6.64 0 01-5-1.85 3.33 3.33 0 01-1.11-2.18 1.55 1.55 0 011.53-1.57c1.82 0 1.64 3.57 4.86 3.57a2.61 2.61 0 002.78-2.71c0-4.64-8.78-3.46-8.78-9.63 0-3.25 2.64-5 5.64-5a5.92 5.92 0 014.92 2 2.54 2.54 0 01.68 1.61 1.36 1.36 0 01-1.36 1.36c-1.92 0-1.42-3.15-4.24-3.15a2.56 2.56 0 00-2.71 2.61c0 4.42 8.88 3.17 8.88 9.56-.03 3.63-2.67 5.38-6.09 5.38z"/></svg>